# xmcd
#
# Track frame offsets:
#	150
#	15745
#	29797
#	42245
#	54737
#	70992
#	85572
#	100642
#	110304
#	121827
#	135785
#	147507
#	159295
#	171872
#	184327
#
# Disc length: 2720 seconds
#
# Revision: 1
# Processed by: cddbd v1.5.1PL0 Copyright (c) Steve Scherf et al.
# Submitted via: audiograbber 1.81.02
#
DISCID=c30a9e0f
DTITLE=Eydie Gorme - Gorme Country Style
DYEAR=1964
DGENRE=Country
TTITLE0=I Really Don't Want To Know
TTITLE1=I Can't Help It
TTITLE2=You Don't Know Me
TTITLE3=I'm Sorry
TTITLE4=The End Of The World
TTITLE5=No One To Cry To
TTITLE6=I Walk The Line
TTITLE7=Oh Lonesome Me
TTITLE8=Someday
TTITLE9=Crazy
TTITLE10=Make The World Go Away
TTITLE11=I Can't Stop Loving You
TTITLE12=Please Help Me I'm Falling
TTITLE13=Wild One
TTITLE14=It Takes Too Long To Learn To Live Alone
EXTD=Eydie Gorme crosses over and records this in 1964 with Producer Don Costa.
EXTD=Tracks 13, 14 and 15 are bonus tracks not found on original release\n\nA
EXTD=vailable only at www.steveandeydie.com
EXTT0=
EXTT1=
EXTT2=
EXTT3=
EXTT4=
EXTT5=
EXTT6=
EXTT7=
EXTT8=
EXTT9=
EXTT10=
EXTT11=
EXTT12=bonus
EXTT13=bonus
EXTT14=bonus
PLAYORDER=
